<svg width="33" height="32" viewBox="0 0 33 32" fill="none" xmlns="http://www.w3.org/2000/svg">
<path fill-rule="evenodd" clip-rule="evenodd" d="M18.2761 10.2007C17.4535 10.2584 14.6214 14.6996 14.1523 15.5943C13.3803 17.0266 10.2126 23.3728 11.5908 25.6312C11.9335 26.1399 12.4422 26.5152 13.0267 26.6955C13.3442 26.7893 14.1668 26.8435 14.4265 26.5837C14.6141 26.3781 14.5203 26.0245 14.5203 25.7286V25.1081C14.5275 23.8201 14.625 22.5357 14.8198 21.2622C14.8775 20.8725 15.2094 18.78 15.379 18.5203C15.3682 18.6826 15.3501 18.845 15.3213 19.0073C15.2419 20.2412 15.1156 21.3416 15.2419 22.5899C15.2996 22.9073 15.3213 23.2248 15.3718 23.5423C15.4295 23.8418 15.4836 24.1412 15.5594 24.419C15.7073 24.9421 15.9129 25.5194 16.2124 25.8982C17.3885 27.3341 18.994 27.0563 20.1701 25.8982C20.4443 25.6276 20.6608 25.3029 20.8051 24.9458C21.3824 23.6001 21.7395 22.3698 22.2627 21.0638C22.6559 20.0608 23.1033 19.0831 23.6084 18.1342C24.2253 16.9004 25.6793 14.6816 26.5379 13.5776L27.0033 13.0003C26.9745 13.0544 26.6642 13.7796 26.556 14.0249C26.2565 14.7357 26.0112 15.4825 25.7514 16.2077C25.3834 17.3802 25.0984 18.578 24.8964 19.7938C24.8026 20.4108 24.6907 21.1756 24.6727 21.8106C24.6727 21.9224 24.6546 22.0162 24.6546 22.1641C24.6546 22.294 24.6366 22.3517 24.6366 22.4997C24.6366 24.3108 24.7484 26.0461 25.4195 27.6516C25.8308 28.6041 26.5776 29.5746 27.4723 30.058C27.6599 30.1518 27.8079 30.2059 27.9955 30.2817C28.0929 30.3069 28.1939 30.325 28.2949 30.3394L28.6124 30.3971H29.1572L29.2149 30.3791H29.2726C29.3015 30.3647 29.334 30.3575 29.3664 30.3611L29.9437 30.2312C30.5823 29.9931 31.1559 29.6106 31.6249 29.1128C32.1986 28.5283 32.8876 27.6552 32.9815 26.7388C32.9995 26.5332 33.0392 26.5151 32.8876 26.3853C32.516 26.0317 32.0831 27.3197 30.4416 26.5729C29.619 26.2013 29.0057 25.4148 28.6882 24.5922C27.9594 22.6115 27.8836 20.3747 28.1831 17.9466C28.4068 16.1572 29.0057 13.6714 29.6406 11.936C29.9004 11.2253 30.3117 10.3125 30.3117 9.54767C30.3117 9.41778 30.4055 9.26626 30.1818 9.06061C29.6767 8.59521 28.5944 9.15441 28.1109 9.45025C26.8229 10.2151 25.9066 11.1676 24.8423 12.2499C24.5428 12.5674 24.0413 13.1663 23.7599 13.4982C23.2007 14.2089 22.6776 14.9161 22.1544 15.6448C20.8845 17.4812 19.6542 19.6567 18.9074 21.7312C18.8136 22.0307 18.5178 22.9073 18.5178 23.2104C17.4354 22.8568 17.4174 18.7295 17.5292 17.741C17.8106 15.165 18.424 13.4621 19.1924 11.1135C19.2502 10.9078 19.362 10.6264 19.2502 10.4424C19.0445 10.1213 18.6152 10.179 18.2761 10.2007ZM15.0868 9.26626C13.0339 9.58374 9.80494 11.4129 8.10566 12.6251C7.30473 13.1699 5.04625 15.0496 5.04625 16.1139C5.04625 16.5432 5.02821 16.637 5.25189 17.0844C5.34209 17.2792 5.45393 17.4632 5.58742 17.6291C5.78945 17.8636 6.20074 18.2749 6.53988 18.4084C6.83932 18.5022 6.95117 18.3723 7.08465 18.1667C7.51759 17.456 7.99382 16.7741 8.51695 16.1283C8.74064 15.8469 11.1867 13.1591 11.5403 13.0472C11.5222 13.105 10.7935 14.1115 10.7357 14.1873C10.476 14.5589 10.191 14.9521 9.95286 15.3454C8.79475 17.1204 7.26504 19.9922 6.74191 22.1028C6.63007 22.5321 6.50019 23.1491 6.48215 23.5604C6.46411 24.0835 6.50019 24.5309 6.72387 24.9782C7.04497 25.6457 7.64747 26.1291 8.36542 26.3023C8.70095 26.3817 9.4658 26.4899 9.67145 26.1544C9.75082 26.0065 9.72917 26.0065 9.75082 25.8008L9.80854 25.036C9.82658 24.5128 10.0683 23.0372 10.1801 22.4961C10.5085 20.97 10.9558 19.4763 11.5186 18.0188C12.5288 15.4789 13.6112 13.592 15.1445 11.4129C15.2744 11.2073 16.133 10.0888 16.3387 9.88319C16.3964 9.82546 16.5804 9.82547 16.4685 9.54767C16.3387 9.26626 15.8697 9.23018 15.5919 9.23018C15.5125 9.23018 15.4439 9.24822 15.3501 9.24822C15.2671 9.24461 15.177 9.26265 15.0868 9.26626Z" fill="#fff"/>
<path fill-rule="evenodd" clip-rule="evenodd" d="M16.1295 2.58467C15.7147 2.70734 15.8121 3.23408 16.1837 3.1511C16.3388 3.11863 16.4506 2.97792 16.447 2.81918C16.4434 2.68208 16.3244 2.57024 16.1873 2.57746C16.1656 2.57746 16.1476 2.58107 16.1295 2.58467ZM8.98249 9.0246C8.63614 9.17612 8.30423 9.32044 7.97231 9.45753C8.65418 9.84357 9.42625 10.0492 10.2128 10.0492C10.3354 10.0492 10.4653 10.042 10.5807 10.0348C12.2512 9.90129 13.7123 8.85142 14.3689 7.30728C14.4555 7.10525 14.5277 6.89599 14.5854 6.68674C14.6287 6.51718 14.6648 6.34761 14.6864 6.17443C14.6936 6.14557 14.6936 6.10949 14.7009 6.08063C13.6726 6.68674 12.5217 7.31089 11.3095 7.92422C10.6601 8.24892 10.0215 8.55919 9.39378 8.83699C9.25669 8.90193 9.11959 8.95966 8.98249 9.0246ZM5.06081 9.26632C4.39698 9.33487 4.23102 10.2224 4.56294 10.4425C4.71086 10.5507 4.89125 10.5976 5.07525 10.5796C5.71383 10.511 5.90504 9.66678 5.55869 9.41424C5.41077 9.30961 5.2376 9.2591 5.06081 9.26632ZM5.42881 6.78776C2.53175 8.57362 0.724237 10.1502 1.03451 10.7599C1.04172 10.7816 1.05255 10.8032 1.07059 10.8177C1.37364 11.1929 2.61833 11.0414 4.40419 10.493C4.23824 10.3414 4.13722 10.1286 4.12639 9.90129C3.36154 10.0095 2.86727 9.94459 2.72657 9.66679C2.49206 9.18695 3.44452 8.18037 5.12215 6.99701C5.22317 6.92846 5.32418 6.85631 5.42881 6.78776ZM4.94897 5.65852C4.9634 5.31217 4.63149 5.22919 4.48357 5.26888C4.2202 5.33743 4.09392 5.48895 4.06867 5.75232C4.0362 5.87859 4.09032 6.00847 4.20577 6.06981C4.30678 6.13836 4.43306 6.16361 4.55211 6.13836C4.7758 6.09145 4.94176 5.89303 4.94897 5.65852ZM14.221 2.44397C16.1945 1.79456 17.6051 1.62861 17.8505 2.11205C18.1319 2.65683 16.8511 3.90152 14.7261 5.2797V5.26527V5.25445C14.5818 2.76506 12.446 0.860144 9.9566 1.00806C7.46722 1.15598 5.5623 3.28819 5.70661 5.77758C5.77877 7.02227 6.35962 8.18037 7.31569 8.9777L7.32651 8.98852H7.33373V8.99573C6.79977 9.19777 6.29829 9.36373 5.82928 9.50804C5.87978 9.61628 5.90504 9.73533 5.90143 9.85439C5.90143 9.90129 5.89422 9.94459 5.887 9.99149C6.45703 9.77502 7.06675 9.53691 7.70172 9.27354C8.8021 8.81174 9.97825 8.27418 11.1869 7.66806C12.4604 7.03309 13.6546 6.38008 14.7297 5.74511C17.8902 3.86544 19.9502 2.15895 19.7626 1.46625C19.7554 1.43739 19.7482 1.42296 19.741 1.40132C19.4307 0.780773 17.082 1.28587 13.9071 2.54499C14.0082 2.50891 14.1092 2.48005 14.2102 2.44397C14.2174 2.43675 14.2174 2.43675 14.2246 2.43675L14.221 2.44397Z" fill="#FB8111"/>
</svg>
