<svg width="98" height="49" viewBox="0 0 98 49" fill="none" xmlns="http://www.w3.org/2000/svg">
<g id="Layer_1-2">
<path id="Vector" fill-rule="evenodd" clip-rule="evenodd" d="M25.232 3.08747C24.5545 3.28776 24.7136 4.14782 25.3203 4.01233C25.5736 3.95931 25.7563 3.72957 25.7504 3.47037C25.7445 3.24652 25.5501 3.0639 25.3262 3.07568C25.2909 3.07568 25.2614 3.08158 25.232 3.08747ZM78.8033 30.9158C77.3954 30.9158 76.93 31.3812 76.93 32.7891C76.93 31.3812 76.4647 30.9158 75.0567 30.9158C76.4647 30.9158 76.93 30.4504 76.93 29.0425C76.93 30.4563 77.3954 30.9158 78.8033 30.9158ZM79.6163 28.0764C78.8563 28.0764 78.6089 28.3297 78.6089 29.0838C78.6089 28.3239 78.3556 28.0764 77.6016 28.0764C78.3497 28.0764 78.6089 27.8231 78.6089 27.0691C78.603 27.829 78.8622 28.0764 79.6163 28.0764ZM72.4118 25.5021C71.5517 25.5021 71.2689 25.7849 71.2689 26.645C71.2689 25.7849 70.9862 25.5021 70.1261 25.5021C70.9862 25.5021 71.2689 25.2076 71.2689 24.3593C71.263 25.2017 71.5517 25.5021 72.4118 25.5021ZM73.3837 23.6524C72.8241 23.6524 72.6356 23.835 72.6356 24.3947C72.6356 23.835 72.453 23.6524 71.8934 23.6524C72.453 23.6524 72.6356 23.4698 72.6356 22.9043C72.6356 23.4698 72.8241 23.6465 73.3837 23.6524ZM83.4807 23.4757C82.7207 24.5125 82.167 25.7024 81.7134 26.9807C81.1361 28.5065 80.1582 31.9173 81.2539 33.443C82.0668 34.6212 83.5278 35.169 84.9121 34.8156C85.9195 34.574 85.5837 33.9614 85.7074 32.9599C85.9195 31.4637 86.3142 30.2148 86.8326 28.8128C87.3038 27.5698 87.8517 26.3563 88.482 25.184C88.7647 24.6067 89.0829 24.0471 89.4245 23.5051C89.6366 23.1988 90.3376 22.109 90.7382 22.2268C90.8913 22.5921 90.4319 23.623 90.3435 23.9646C89.0004 27.6464 87.5394 33.0483 88.0873 36.9481C88.2699 38.3442 88.5409 39.2337 89.2124 40.241C89.7603 41.0009 90.7087 41.8551 91.8633 42.0083C93.2359 42.1614 94.2079 41.7668 95.28 41.0657C96.1695 40.459 96.9295 39.7874 97.442 38.8685L97.4714 38.8096V38.5857C97.3183 38.4914 97.1356 38.4915 96.9236 38.4561C95.6453 38.1792 94.8205 37.6608 94.0253 36.6299C92.2286 34.25 92.4701 30.3798 92.8059 27.5463C92.9885 25.9616 93.3243 24.5007 93.6954 23.0044C93.9723 21.9382 94.8853 19.3757 94.1549 18.6157C93.8544 18.4154 93.5069 18.3035 93.1475 18.2858C92.7352 18.2505 92.3228 18.3035 91.9281 18.439C91.2919 18.6629 90.6969 18.981 90.1609 19.3815C89.401 19.9294 88.7294 20.6304 88.0873 21.3314C87.8752 21.5729 87.6926 21.8204 87.4511 22.0619C87.0564 22.5508 86.6558 23.0987 86.2906 23.6171C86.0785 23.9234 85.9254 24.1355 85.7427 24.4123C85.6485 24.5949 85.3186 25.1428 85.1949 25.237C85.1949 24.8718 85.2538 24.3829 85.2243 23.9587C85.1654 23.5935 85.1301 23.1988 84.9828 22.8925C84.5587 22.1326 83.734 23.1694 83.4807 23.4757ZM74.4853 26.2915L74.2026 25.9322L73.7019 26.5802L74.6856 27.6994L75.6164 26.8983L75.5634 26.8924C75.1392 26.8511 74.7504 26.6332 74.4853 26.2915ZM74.285 23.7938L72.777 25.3725C72.671 25.4845 72.6768 25.6612 72.7888 25.7672C72.8536 25.8261 72.936 25.8556 73.0185 25.8438L74.2909 25.6435L74.8565 26.2679L74.9978 26.4152C75.1981 26.645 75.5103 26.7392 75.8049 26.6685L76.0405 26.6155L75.2217 27.9468C75.1451 28.0823 75.1922 28.2532 75.3277 28.3297C75.4161 28.3769 75.5162 28.3769 75.6046 28.3297L76.9595 27.4873C77.2776 27.293 77.5014 26.9748 77.5839 26.6096L77.7665 25.8026L76.7828 26.1855C79.7753 24.377 82.5322 22.486 82.6736 19.8764C82.3025 19.8941 81.9255 19.9294 81.5544 19.9883C81.0065 20.0826 80.4704 20.2298 79.952 20.436C80.0816 20.8484 80.2819 21.2313 80.5411 21.5671C80.7002 21.7791 80.8887 21.9676 81.1008 22.1267C80.871 21.9971 80.6531 21.8498 80.4528 21.6849C80.0816 21.3903 79.7694 21.0251 79.5279 20.6186L79.3276 20.7188L79.2275 20.7718C77.7665 21.5494 76.394 22.8395 75.1451 24.7599L75.7106 23.6524L74.285 23.7938ZM77.472 24.4771C77.2187 24.377 76.9889 24.2238 76.9241 24.0294C77.2953 24.1001 77.6782 24.1001 78.0493 24.0353C78.1082 24.0294 78.1671 24.0118 78.226 24C79.1332 23.7938 79.8342 23.2401 80.1288 22.5685C80.1877 22.6569 80.2112 22.7629 80.2112 22.8689C80.1995 23.5523 78.7798 24.5007 78.0964 24.5773C77.8785 24.5891 77.6723 24.5537 77.472 24.4771ZM78.1612 23.8586C77.7371 23.9587 77.2953 23.9705 76.8711 23.8939C76.8535 23.8527 76.8476 23.8115 76.8476 23.7643C76.8358 22.9043 78.5206 21.5199 79.304 21.6967C79.5043 21.7379 79.7871 21.9971 79.9638 22.274C79.9992 22.3329 80.0286 22.38 80.064 22.433C79.7871 23.0574 79.1391 23.5935 78.3085 23.8291C78.2555 23.8468 78.2084 23.8586 78.1612 23.8586ZM71.5811 31.988C71.5635 32.0115 71.5399 32.041 71.5163 32.0645L71.5105 32.0704V32.0822C71.4928 32.1176 71.4692 32.1529 71.4457 32.1824C71.3219 32.3296 71.1629 32.4357 70.9803 32.4887C70.9685 32.4887 70.9685 32.4887 70.9685 32.5005H70.9449L70.7977 32.524C70.5502 32.5417 70.3146 32.4415 70.1497 32.2589C70.3382 32.3709 70.562 32.4062 70.7741 32.365C70.9803 32.3355 71.1629 32.2236 71.2925 32.0586C71.3514 31.988 71.3926 31.9114 71.4221 31.8289C71.4633 31.7229 71.481 31.6109 71.4751 31.4931C71.4633 31.2752 71.3809 31.069 71.2336 30.904C71.4044 30.9983 71.534 31.1573 71.5929 31.3459C71.7638 31.5167 71.9758 31.6404 72.2115 31.7052C72.5119 31.7877 72.83 31.7523 73.101 31.6051C73.3779 31.4637 73.5899 31.2221 73.6901 30.9335C73.802 30.6272 73.7961 30.2973 73.6842 29.991C73.8727 30.2796 73.9316 30.639 73.8432 30.9747C73.749 31.3223 73.5134 31.6168 73.1952 31.7818C72.8771 31.9526 72.506 31.9762 72.1702 31.8584C71.9582 31.7818 71.7756 31.6522 71.6342 31.4755C71.6577 31.6463 71.6401 31.8171 71.5753 31.9762C71.5753 31.9821 71.5811 31.9938 71.5929 31.9938L71.5811 31.988ZM67.0688 34.3207C66.8449 34.3914 66.6034 34.3855 66.3854 34.3031C66.1675 34.2147 65.9848 34.0615 65.8611 33.8612C65.7315 33.6374 65.6726 33.3723 65.7021 33.1131C65.5195 33.3664 65.4723 33.7022 65.5843 33.9967C65.7963 34.5858 66.4443 34.8921 67.0275 34.6801C67.0805 34.6624 67.1395 34.6329 67.1866 34.6094C67.4634 34.4621 67.6461 34.1852 67.6873 33.8789C67.54 34.0851 67.3221 34.2441 67.0688 34.3207ZM63.8229 27.2988C63.7817 27.8408 63.1867 28.1471 62.5328 29.2134C62.5269 29.231 62.5328 29.2487 62.5446 29.2546C62.5505 29.2605 62.5623 29.2605 62.5682 29.2546C62.8332 29.1191 63.5107 28.8128 63.169 29.2546C62.9039 29.6081 62.7036 30.0027 62.5623 30.421C62.5564 30.4563 62.5976 30.4799 62.6094 30.4446C62.7449 30.2737 62.9452 30.1677 63.1572 30.1441H63.2574C63.2574 30.1441 63.1926 30.1618 63.0807 30.3974V30.4092C62.2854 31.4813 62.1146 32.312 62.0556 32.8951C62.0556 32.9128 62.0733 32.9246 62.091 32.9246C62.1028 32.9246 62.1087 32.9187 62.1146 32.9128C62.3384 32.5122 62.9628 32.1293 63.2044 32.1647C63.2397 32.1647 63.2751 32.1882 63.2868 32.2236C63.4223 32.6301 63.1572 33.1897 62.9216 33.602C62.8568 33.7022 62.792 33.7847 62.7449 33.8671C62.739 33.8848 62.7213 33.8907 62.7095 33.9084L62.5799 34.0851C62.6212 34.038 62.6624 33.9967 62.7095 33.9555V33.9496C62.7743 33.8848 62.8568 33.8023 62.9511 33.7258C63.0748 33.6079 63.2692 33.6138 63.3811 33.7375C63.4341 33.7964 63.4636 33.873 63.4636 33.9555C63.4812 35.387 61.7375 36.3531 60.6124 37.1778C60.6006 37.1896 60.5947 37.2072 60.6065 37.2249C60.6124 37.2367 60.6242 37.2367 60.636 37.2367C61.5373 36.9068 62.6329 36.0703 63.5873 36.1881C63.6049 36.194 63.6285 36.1999 63.6462 36.1999C63.9466 36.2588 64.141 36.5475 64.088 36.8479C64.0762 36.9186 64.0468 36.9893 64.0055 37.0482C63.9879 37.0894 63.9584 37.1189 63.923 37.1483L63.1808 37.8376C63.1455 37.8611 63.1808 37.9024 63.2044 37.8906C63.6933 37.6667 64.2294 37.5607 64.7713 37.5843C65.2603 37.6078 65.7433 37.7197 66.191 37.9259C66.3854 38.0025 66.5857 38.0673 66.7919 38.1203C66.8272 38.1321 66.8685 38.138 66.9097 38.1439C66.5916 38.2087 66.2853 38.3383 66.0202 38.5268C65.9731 38.568 65.92 38.6034 65.8729 38.6328C65.7139 38.733 65.3486 39.11 64.359 39.2514C64.5534 39.2985 64.7596 39.3221 64.9598 39.3162C65.5607 39.3044 66.1557 39.1983 66.7212 38.9981L67.1041 38.8685C68.5179 38.3677 69.8433 37.6373 71.4515 37.8965C71.4869 37.8965 71.4869 37.9436 71.4515 37.9554C70.7034 38.1969 69.7844 38.2499 69.1129 38.7506H69.107C68.9126 38.892 68.7477 39.0629 68.618 39.269C68.5945 39.3103 68.565 39.3515 68.5415 39.3986C69.9553 38.6564 71.3632 38.3147 72.724 37.9259C72.9773 37.8317 73.2306 37.7433 73.4721 37.6491C75.1569 36.9893 76.7297 36.1351 77.8019 34.7272C78.1023 34.3266 78.3615 33.8966 78.5618 33.443C78.5677 33.4312 78.5618 33.4135 78.55 33.4076C78.5382 33.4018 78.5265 33.4018 78.5206 33.4135C75.9521 34.5976 73.4427 33.8141 71.5811 32.0174C71.6224 31.9703 71.6577 31.9232 71.6931 31.8701C71.858 31.9821 72.0406 32.0528 72.235 32.0881C73.1187 32.2707 73.9846 31.6993 74.1672 30.8157C74.1731 30.7627 74.1849 30.7214 74.1908 30.6861C74.2733 29.9497 73.8609 29.2487 73.1776 28.9601L74.5442 27.8408L73.5664 26.7333L72.3234 28.1C72.0642 27.4461 71.322 27.1339 70.674 27.3931C70.3676 27.5168 70.1143 27.7583 69.9847 28.0588C69.9435 28.1412 69.914 28.2355 69.8905 28.3239C69.8316 28.6184 69.8787 28.9188 70.026 29.1839C69.9435 29.1898 69.8669 29.2016 69.7844 29.2193C69.0186 26.698 69.9317 23.9646 72.0583 22.4036C72.4707 22.109 72.9125 21.8616 73.3837 21.679C73.4014 21.6731 73.4073 21.6554 73.4014 21.6377C73.3955 21.6319 73.3896 21.626 73.3837 21.6201C71.752 20.8778 66.7507 22.6863 65.166 24.5949C65.1483 24.6126 65.1719 24.6539 65.2073 24.6362C65.3722 24.5537 65.6903 24.3947 65.9672 24.2886C66.0025 24.271 66.0261 24.324 66.0025 24.3357C65.06 25.0368 64.6476 25.6494 63.7345 26.9042C63.4989 27.181 63.2927 27.4756 63.116 27.7937L63.764 27.3047C63.7876 27.2871 63.8229 27.3047 63.8111 27.3283L63.8229 27.2988ZM70.0554 28.5477C70.1556 28.0529 70.6386 27.7289 71.1334 27.829C71.1688 27.8349 71.1982 27.8467 71.2336 27.8526C71.4692 27.9233 71.6636 28.1059 71.752 28.3356C71.6106 28.1589 71.4162 28.0411 71.1924 28.0057C70.9862 27.9645 70.7741 27.9999 70.5915 28.1059C70.4089 28.2119 70.2734 28.3828 70.1968 28.5831C70.132 28.801 70.1379 29.0308 70.2204 29.2428C70.0554 29.0484 69.9965 28.7951 70.0554 28.5477ZM72.5531 29.0543C72.671 29.0425 72.7947 29.072 72.8948 29.1368C72.9419 29.1662 72.9832 29.2075 73.0244 29.2487C73.1481 29.3783 73.2011 29.555 73.1835 29.7318C73.1717 29.8967 73.0774 30.0499 72.9302 30.1323C73.0892 29.9026 73.0656 29.5904 72.8771 29.3842C72.8359 29.343 72.7888 29.3017 72.7358 29.2782C72.5414 29.178 72.3116 29.1839 72.129 29.2958C72.2174 29.1427 72.3764 29.0543 72.5531 29.0543ZM63.4223 27.4579C63.4047 27.4225 63.4695 27.4579 63.4223 27.4579V27.4579ZM64.7949 28.9836C65.7374 28.0057 67.5695 28.2532 67.5695 29.9615C66.8096 28.6184 65.007 29.5668 65.2249 30.9394C65.2838 31.3341 65.6196 31.5167 65.9848 31.6698C65.6314 31.7229 65.2662 31.6581 64.9481 31.4872C63.7935 30.851 64.4297 29.4137 64.7949 28.9836ZM69.0127 29.8496C69.2012 29.6493 69.4428 29.5197 69.702 29.4667C69.755 29.449 69.808 29.4431 69.861 29.4431C70.1556 29.4195 70.4442 29.5079 70.6798 29.6846C70.4383 29.5786 70.1791 29.5433 69.9199 29.5786L69.8669 29.5904C69.8257 29.6022 69.7844 29.6081 69.7373 29.6198C69.702 29.6257 69.6666 29.6375 69.6372 29.6493H69.6313L69.5311 29.7023C69.3956 29.773 69.2719 29.8614 69.1659 29.9792C69.1188 30.0381 69.0775 30.097 69.0363 30.1618C68.8773 30.4269 68.8183 30.745 68.8773 31.0513C68.9185 31.2752 69.0186 31.4813 69.1659 31.6522C69.1482 31.5874 69.1482 31.5167 69.16 31.4519C69.1718 31.2811 69.266 31.1338 69.4133 31.0513C69.2248 31.3164 69.2837 31.6816 69.5488 31.8701C69.7432 32.0115 70.0024 32.0174 70.2086 31.8878C70.1202 32.0292 69.9612 32.1176 69.7903 32.1234C69.7373 32.1234 69.6902 32.1234 69.6431 32.1176C69.6018 32.1117 69.5606 32.0999 69.5252 32.0763C69.4487 32.0469 69.3721 31.9938 69.3191 31.9349C69.2719 31.8819 69.2307 31.8171 69.2012 31.7523C68.9715 31.5933 68.8007 31.3635 68.7241 31.0926C68.6711 30.9217 68.6593 30.7391 68.6828 30.5565C68.6828 30.527 68.6946 30.4917 68.7005 30.4622C68.73 30.3208 68.783 30.1854 68.8596 30.0617C68.9008 29.9851 68.9538 29.9144 69.0127 29.8496ZM65.8788 32.6124C66.4502 32.2059 67.2455 32.3414 67.6519 32.9128C68.0584 33.4842 67.9229 34.2795 67.3515 34.686C66.7801 35.0865 65.9966 34.9569 65.5843 34.3914C65.1719 33.82 65.3015 33.0306 65.8788 32.6124ZM67.6932 38.0437C67.9112 37.9848 68.7064 37.7904 69.0658 37.6962C69.1011 37.6844 69.1129 37.7374 69.0893 37.7551C68.7359 37.9907 67.864 38.5445 67.6048 38.3972C67.381 38.3383 66.9686 38.5268 66.7624 38.7153C67.0098 38.409 67.328 38.1733 67.6932 38.0437ZM73.101 34.5858C73.26 34.5446 73.4368 34.5564 73.5899 34.6153C74.1554 34.8509 73.9375 35.546 73.7902 35.7581C73.4073 36.2588 72.5472 36.2411 72.4589 35.4518C72.883 36.035 73.6606 35.5048 73.4957 34.8804C73.4368 34.7036 73.2777 34.6388 73.101 34.5858ZM73.3602 33.8671C73.4309 33.8023 73.4603 33.7081 73.4427 33.6138C73.4957 33.6904 73.5251 33.7788 73.5192 33.8671C73.5075 34.2088 73.101 34.2206 72.9655 34.1852C72.6356 34.0792 72.4825 33.6315 72.8712 33.4371C72.6474 33.7552 73.0774 34.0674 73.3602 33.8671ZM69.0658 25.1016C68.7594 25.561 68.1762 25.2488 68.0172 25.078C67.6461 24.648 67.811 23.8939 68.5238 23.9528C67.9347 24.2238 68.2705 25.0073 68.8478 24.9661C69.0127 24.9543 69.1011 24.8188 69.1777 24.6715C69.1954 24.8306 69.1541 24.9778 69.0658 25.1016ZM68.2234 22.9573C67.8405 23.2459 67.5636 23.888 66.2735 24.0176C66.2382 24.0176 66.2205 23.9823 66.2499 23.9646C66.5032 23.7408 67.381 22.9985 68.1998 22.8984C68.2293 22.9043 68.2469 22.9396 68.2234 22.9573ZM65.6785 26.6862C65.6196 26.6096 65.6608 26.4918 65.761 26.4211C65.814 26.3386 65.92 26.3151 65.9966 26.3681C66.0732 26.4211 66.1027 26.5271 66.0496 26.6037C66.0261 26.6391 65.9966 26.6626 65.9613 26.6744C65.8552 26.7569 65.7315 26.7569 65.6785 26.6862ZM68.6828 30.5506C68.6828 30.5447 68.6828 30.5388 68.6828 30.5329C68.677 30.5388 68.677 30.5447 68.6828 30.5506ZM70.2734 34.5505C70.1202 34.4327 70.0908 34.2147 70.2027 34.0615C70.2911 33.8848 70.5031 33.82 70.6798 33.9084C70.6857 33.9084 70.6857 33.9143 70.6916 33.9143C70.8389 34.038 70.8684 34.2559 70.7505 34.415C70.6268 34.5858 70.4089 34.6447 70.2734 34.5505ZM68.1645 27.3754C67.9465 27.5522 67.6578 27.5522 67.5047 27.3754C67.3574 27.1987 67.4104 26.91 67.6225 26.7333C67.8346 26.5566 68.1291 26.5507 68.2705 26.7333C68.4119 26.9159 68.3765 27.2046 68.1645 27.3754ZM48.6716 23.5287C48.0708 24.4123 47.5877 25.3784 47.2402 26.3917C46.7218 28.1 46.604 29.4372 46.604 31.1161L46.7571 32.577C46.816 33.0424 46.9044 33.496 47.034 33.9496C47.6113 36.2058 48.9839 39.0393 51.7879 39.0393L52.6067 38.9804C53.5198 38.8272 54.3151 38.4325 55.1339 38.0025C56.6243 37.1896 57.9085 36.0409 58.8805 34.6506C60.3414 32.7008 61.6551 29.5904 61.8671 27.0279C61.9261 26.1383 61.9967 25.5669 61.8377 24.648C61.6551 23.3343 60.9835 22.0854 59.7052 21.6613C59.0042 21.4198 57.9674 21.5317 57.3253 21.9028C56.2296 22.539 55.7407 24.4005 55.617 25.6847C55.5227 26.7215 55.8938 27.9704 56.2532 28.7009C56.4652 29.0838 56.7185 29.4431 57.0131 29.7671C57.29 30.1029 57.773 30.3444 58.1382 30.4681C57.8849 31.0042 57.5668 31.5108 57.1957 31.9703C56.2532 33.2781 54.48 34.9275 52.6244 34.8627L52.2886 34.8332C52.5243 34.0262 52.9072 33.2722 53.4138 32.6065C53.5964 32.3944 53.779 32.2118 53.9322 31.9997C54.4211 31.393 55.2753 30.5683 55.8231 29.9851C55.882 29.8908 56.0352 29.773 56.0647 29.6493C55.8526 29.7082 55.0573 30.3798 54.8747 30.5388C54.3269 31.0277 53.1958 31.9997 52.5302 32.3355C52.0118 32.6124 51.3107 32.5476 51.0398 32.1234C51.3755 31.5167 52.0471 30.5388 52.4712 29.9262C52.5302 29.8319 52.6539 29.7141 52.6539 29.5904C52.5243 29.6493 52.2886 30.0145 52.1649 30.1088C52 30.2914 51.7997 30.4446 51.5876 30.5683C50.9514 30.9335 50.6981 30.8746 49.9087 30.9629C49.7556 30.4151 49.9676 28.5241 50.0913 27.9763C50.1856 27.4579 50.3034 27.0338 50.4271 26.5802C51.0987 24.4771 52.377 22.7982 54.4506 21.9794C54.7746 21.8439 55.1103 21.7556 55.4579 21.7025C55.8231 21.6083 56.6773 21.7968 56.6773 21.4257C56.6479 21.1841 55.4284 19.9353 54.3327 19.9353C53.6612 19.9353 53.508 19.9058 52.807 20.1179C52.0353 20.3476 51.3225 20.7306 50.704 21.2431C49.8498 22.003 49.3314 22.4919 48.6599 23.5287H48.6716ZM57.9969 28.9306C57.6905 28.0175 57.6022 25.3018 58.2384 24.9955C58.5742 24.8129 58.8451 25.4845 58.9394 25.7908C59.2163 26.5507 59.2163 27.7701 59.122 28.5654C59.1102 28.7833 59.069 28.9954 58.9924 29.2016C58.9335 29.3842 58.8392 29.6257 58.7155 29.6905C58.3503 29.8731 58.0793 29.231 57.9851 28.9306H57.9969ZM28.737 15.523C27.3939 15.6173 22.7696 22.8689 22.0038 24.3299C20.7431 26.6685 15.571 37.0305 17.8213 40.7182C18.3809 41.5488 19.2115 42.1615 20.1658 42.456C20.6842 42.6092 22.0273 42.6975 22.4515 42.2734C22.7578 41.9376 22.6047 41.3603 22.6047 40.8772V39.864C22.6164 37.761 22.7755 35.6638 23.0936 33.5844C23.1878 32.9482 23.7298 29.5315 24.0067 29.1073C23.989 29.3724 23.9595 29.6375 23.9124 29.9026C23.7828 31.9173 23.5766 33.714 23.7828 35.7522C23.8771 36.2706 23.9124 36.789 23.9949 37.3074C24.0891 37.7963 24.1775 38.2853 24.3012 38.7389C24.5427 39.593 24.8785 40.5356 25.3675 41.1541C27.2879 43.4987 29.9093 43.0451 31.8297 41.1541C32.2774 40.7123 32.6309 40.1821 32.8665 39.5989C33.809 37.4016 34.3922 35.3929 35.2464 33.2604C35.8885 31.6227 36.619 30.0263 37.4437 28.477C38.451 26.4623 40.825 22.8395 42.2271 21.0369L42.987 20.0943C42.9398 20.1827 42.4332 21.3668 42.2565 21.7673C41.7676 22.9278 41.367 24.1472 40.9429 25.3313C40.342 27.2458 39.8766 29.2016 39.5467 31.1868C39.3936 32.1941 39.2109 33.443 39.1815 34.4798C39.1815 34.6624 39.152 34.8156 39.152 35.0571C39.152 35.2692 39.1226 35.3634 39.1226 35.6049C39.1226 38.5621 39.3052 41.3956 40.4009 44.0171C41.0724 45.5723 42.2919 47.1569 43.7528 47.9463C44.0591 48.0994 44.3006 48.1878 44.607 48.3115C44.766 48.3527 44.931 48.3822 45.0959 48.4057L45.6143 48.5H46.5038L46.5981 48.4705H46.6923C46.7394 48.447 46.7925 48.4352 46.8455 48.4411L47.788 48.229C48.8307 47.8402 49.7673 47.2158 50.5331 46.4029C51.4698 45.4485 52.5949 44.023 52.7481 42.5267C52.7776 42.1909 52.8424 42.1614 52.5949 41.9494C51.9882 41.3721 51.2813 43.4751 48.601 42.2557C47.2578 41.6489 46.2564 40.3647 45.738 39.0216C44.548 35.7876 44.4243 32.1352 44.9133 28.1707C45.2785 25.2488 46.2564 21.19 47.2932 18.3565C47.7173 17.196 48.3889 15.7057 48.3889 14.4568C48.3889 14.2447 48.542 13.9973 48.1768 13.6615C47.3521 12.9016 45.5848 13.8147 44.7955 14.2977C42.6924 15.5466 41.1962 17.1018 39.4584 18.869C38.9694 19.3874 38.1506 20.3653 37.6911 20.9073C36.778 22.0678 35.9239 23.2224 35.0697 24.4123C32.9961 27.4108 30.9873 30.9629 29.7679 34.3502C29.6148 34.8391 29.1317 36.2706 29.1317 36.7654C27.3645 36.1881 27.335 29.449 27.5176 27.8349C27.9771 23.6288 28.9785 20.8484 30.2333 17.0134C30.3276 16.6777 30.5102 16.2182 30.3275 15.9177C29.9918 15.3934 29.2908 15.4877 28.737 15.523ZM23.5295 13.9973C20.1776 14.5157 14.9053 17.5024 12.1307 19.4817C10.823 20.3712 7.13529 23.4403 7.13529 25.1781C7.13529 25.8791 7.10583 26.0323 7.47107 26.7628C7.61834 27.0809 7.80095 27.3813 8.01891 27.6523C8.3488 28.0352 9.02036 28.7068 9.5741 28.9247C10.063 29.0779 10.2457 28.8658 10.4636 28.53C11.1705 27.3695 11.9481 26.2562 12.8023 25.2017C13.1675 24.7422 17.1615 20.3535 17.7388 20.1709C17.7094 20.2652 16.5194 21.9087 16.4252 22.0324C16.001 22.6392 15.5356 23.2813 15.1468 23.9234C13.2559 26.8217 10.7582 31.5108 9.90398 34.9569C9.72137 35.658 9.5093 36.6653 9.47984 37.3368C9.45039 38.191 9.5093 38.9215 9.87453 39.6519C10.3988 40.7417 11.3826 41.5311 12.5549 41.8139C13.1027 41.9435 14.3516 42.1202 14.6874 41.5724C14.817 41.3308 14.7816 41.3308 14.8169 40.9951L14.9112 39.7462C14.9407 38.892 15.3353 36.4827 15.518 35.599C16.054 33.1072 16.7845 30.6684 17.7035 28.2885C19.3529 24.1414 21.1202 21.0604 23.6238 17.5024C23.8358 17.1666 25.2379 15.3404 25.5736 15.0046C25.6679 14.9104 25.9683 14.9104 25.7857 14.4568C25.5736 13.9973 24.8078 13.9384 24.3542 13.9384C24.2246 13.9384 24.1127 13.9679 23.9595 13.9679C23.8241 13.962 23.6768 13.9914 23.5295 13.9973ZM13.5622 13.6026C12.9967 13.85 12.4547 14.0857 11.9128 14.3095C13.0261 14.9398 14.2868 15.2756 15.571 15.2756C15.7713 15.2756 15.9833 15.2638 16.1718 15.2521C18.8993 15.0341 21.2851 13.3199 22.3572 10.7986C22.4986 10.4687 22.6164 10.127 22.7107 9.78536C22.7814 9.50849 22.8403 9.23162 22.8756 8.94886C22.8874 8.90173 22.8874 8.84282 22.8992 8.7957C21.2203 9.78536 19.3411 10.8045 17.3618 11.8059C16.3014 12.3361 15.2588 12.8427 14.2338 13.2963C14.0099 13.4023 13.7861 13.4966 13.5622 13.6026ZM17.3618 14.2801C16.8316 14.3213 16.3545 13.7735 16.8022 13.2668C16.6726 13.8618 17.4502 14.0503 17.7447 13.5967C17.8272 13.4671 17.78 13.3199 17.7094 13.1844C17.8272 13.261 17.9155 13.3729 17.9627 13.5084C18.1335 13.9914 17.5739 14.2447 17.35 14.2742L17.3618 14.2801ZM19.1467 12.7661C19.1467 12.6837 19.2056 12.613 19.2881 12.613C19.294 12.613 19.294 12.613 19.2999 12.613C19.3824 12.613 19.453 12.6778 19.453 12.7661C19.453 12.8486 19.3883 12.9193 19.2999 12.9193C19.2174 12.9193 19.1467 12.8545 19.1467 12.7661ZM7.15885 13.9973C6.07493 14.1092 5.80396 15.5584 6.34591 15.9177C6.58744 16.0945 6.88198 16.171 7.18241 16.1416C8.22509 16.0297 8.53731 14.6512 7.97179 14.2388C7.73026 14.068 7.4475 13.9855 7.15885 13.9973ZM7.75972 9.9503C3.02937 12.8663 0.0780527 15.4406 0.584666 16.4361C0.596447 16.4715 0.61412 16.5068 0.643574 16.5304C1.13841 17.143 3.17075 16.8956 6.08672 16.0002C5.81574 15.7528 5.65079 15.4052 5.63312 15.0341C4.38426 15.2108 3.57722 15.1048 3.34747 14.6512C2.96457 13.8677 4.51975 12.2242 7.259 10.292C7.42394 10.18 7.58888 10.0622 7.75972 9.9503ZM6.97623 8.10647C6.9998 7.54095 6.45784 7.40546 6.21631 7.47026C5.78628 7.58218 5.5801 7.8296 5.53887 8.25963C5.48585 8.46581 5.57421 8.67788 5.76272 8.77802C5.92766 8.88995 6.13384 8.93119 6.32824 8.88995C6.69347 8.81337 6.96445 8.48937 6.97623 8.10647ZM22.1157 2.85772C25.338 1.79737 27.6413 1.52639 28.0419 2.31577C28.5014 3.20529 26.4101 5.23763 22.9404 7.48793V7.46437V7.44669C22.7048 3.38201 19.2174 0.271642 15.1527 0.513167C11.088 0.754692 7.97768 4.23618 8.21331 8.30087C8.33113 10.3332 9.27955 12.2242 10.8406 13.526L10.8583 13.5437H10.8701C10.8701 13.5437 10.8701 13.5496 10.8701 13.5555C9.99824 13.8854 9.17941 14.1564 8.4136 14.392C8.49607 14.5687 8.53731 14.7631 8.53142 14.9575C8.53142 15.0341 8.51964 15.1048 8.50785 15.1814C9.43861 14.8279 10.4342 14.4391 11.471 14.0091C13.2677 13.2551 15.1881 12.3773 17.1615 11.3877C19.241 10.3509 21.1908 9.28464 22.9463 8.24785C28.1067 5.17872 31.4704 2.39235 31.164 1.2613C31.1523 1.21418 31.1405 1.19062 31.1287 1.15527C30.6221 0.142045 26.7872 0.966764 21.6032 3.02267C21.7682 2.96376 21.9331 2.91663 22.098 2.85772C22.1098 2.84594 22.1098 2.84594 22.1216 2.84594L22.1157 2.85772ZM15.8773 6.64554C15.7124 6.64554 15.571 6.51005 15.571 6.3451V6.33921C15.5828 6.16838 15.73 6.04467 15.895 6.05056C16.0481 6.06234 16.1718 6.18016 16.1836 6.33921C16.1836 6.50416 16.0481 6.64554 15.8773 6.64554ZM20.59 6.23907C20.5075 5.95631 20.2424 5.85616 19.9538 5.78547C20.2071 5.70889 20.4781 5.72067 20.7255 5.81493C21.6327 6.16249 21.3146 7.27586 21.0907 7.62342C20.5016 8.43046 19.1408 8.43636 18.97 7.19339C19.6651 8.08291 20.8786 7.21695 20.59 6.23907ZM14.004 10.7573C14.0099 10.5924 14.1454 10.4569 14.3103 10.451C14.4753 10.451 14.6167 10.5865 14.6167 10.7515V10.7573C14.6167 10.9223 14.4812 11.0578 14.3103 11.0637C14.1454 11.0637 14.0099 10.9282 14.004 10.7573ZM11.0232 6.33921C11.0232 6.42169 10.9526 6.49238 10.8701 6.49238C10.7876 6.49238 10.7169 6.42169 10.7169 6.33921C10.7169 6.25674 10.7876 6.18605 10.8701 6.18605C10.9526 6.18605 11.0174 6.24496 11.0232 6.32743C11.0232 6.33332 11.0232 6.33332 11.0232 6.33921ZM10.2457 8.27141C10.7699 7.72945 11.7949 7.86494 11.7949 8.81926C11.3708 8.07112 10.3635 8.59541 10.4813 9.36122C10.5166 9.58507 10.7051 9.68522 10.9054 9.76769C10.7051 9.79714 10.5049 9.7618 10.3281 9.66754C9.68602 9.3082 10.0395 8.50704 10.2457 8.27141ZM12.8082 4.14193C12.4842 4.14193 12.2191 3.87684 12.2191 3.55285C12.2191 3.22885 12.4842 2.96376 12.8082 2.96376C13.1322 2.96376 13.3973 3.22885 13.3973 3.55285C13.3973 3.87684 13.144 4.13604 12.82 4.14193C12.8141 4.14193 12.8082 4.14193 12.8082 4.14193ZM16.543 3.3879C16.4487 3.20528 16.4134 2.9991 16.4428 2.79881C16.5724 2.06246 17.4502 2.13315 17.7506 2.24508C18.4516 2.56907 18.6637 3.58819 17.7506 3.91219C18.322 3.25241 17.4796 2.46893 16.7904 2.84005C16.5901 2.94609 16.5548 3.15816 16.5371 3.38201H16.543V3.3879Z" fill="#110C20"/>
<path id="Vector_2" fill-rule="evenodd" clip-rule="evenodd" d="M25.232 3.08747C24.5545 3.28776 24.7136 4.14782 25.3203 4.01233C25.5736 3.95931 25.7563 3.72957 25.7504 3.47037C25.7445 3.24652 25.5501 3.0639 25.3262 3.07568C25.2909 3.07568 25.2614 3.08158 25.232 3.08747ZM13.5622 13.6026C12.9967 13.85 12.4547 14.0857 11.9128 14.3095C13.0261 14.9398 14.2868 15.2756 15.571 15.2756C15.7713 15.2756 15.9833 15.2638 16.1718 15.2521C18.8993 15.0341 21.2851 13.3199 22.3572 10.7986C22.4986 10.4687 22.6164 10.127 22.7107 9.78536C22.7814 9.50849 22.8403 9.23162 22.8756 8.94886C22.8874 8.90173 22.8874 8.84282 22.8992 8.7957C21.2203 9.78536 19.3411 10.8045 17.3618 11.8059C16.3014 12.3361 15.2588 12.8427 14.2338 13.2963C14.0099 13.4023 13.7861 13.4966 13.5622 13.6026ZM17.3618 14.2801C16.8316 14.3213 16.3545 13.7735 16.8022 13.2668C16.6726 13.8618 17.4502 14.0503 17.7447 13.5967C17.8272 13.4671 17.78 13.3199 17.7094 13.1844C17.8272 13.261 17.9155 13.3729 17.9627 13.5084C18.1335 13.9914 17.5739 14.2447 17.35 14.2742L17.3618 14.2801ZM19.1467 12.7661C19.1467 12.6837 19.2056 12.613 19.2881 12.613C19.294 12.613 19.294 12.613 19.2999 12.613C19.3824 12.613 19.453 12.6778 19.453 12.7661C19.453 12.8486 19.3883 12.9193 19.2999 12.9193C19.2174 12.9193 19.1467 12.8545 19.1467 12.7661ZM7.15885 13.9973C6.07493 14.1092 5.80396 15.5584 6.34591 15.9177C6.58744 16.0945 6.88198 16.171 7.18241 16.1416C8.22509 16.0297 8.53731 14.6512 7.97179 14.2388C7.73026 14.068 7.4475 13.9855 7.15885 13.9973ZM7.75972 9.9503C3.02937 12.8663 0.0780527 15.4406 0.584666 16.4361C0.596447 16.4715 0.61412 16.5068 0.643574 16.5304C1.13841 17.143 3.17075 16.8956 6.08672 16.0002C5.81574 15.7528 5.65079 15.4052 5.63312 15.0341C4.38426 15.2108 3.57722 15.1048 3.34747 14.6512C2.96457 13.8677 4.51975 12.2242 7.259 10.292C7.42394 10.18 7.58888 10.0622 7.75972 9.9503ZM6.97623 8.10647C6.9998 7.54095 6.45784 7.40546 6.21631 7.47026C5.78628 7.58218 5.5801 7.8296 5.53887 8.25963C5.48585 8.46581 5.57421 8.67788 5.76272 8.77802C5.92766 8.88995 6.13384 8.93119 6.32824 8.88995C6.69347 8.81337 6.96445 8.48937 6.97623 8.10647ZM22.1157 2.85772C25.338 1.79737 27.6413 1.52639 28.0419 2.31577C28.5014 3.20529 26.4101 5.23763 22.9404 7.48793V7.46437V7.44669C22.7048 3.38201 19.2174 0.271642 15.1527 0.513167C11.088 0.754692 7.97768 4.23618 8.21331 8.30087C8.33113 10.3332 9.27955 12.2242 10.8406 13.526L10.8583 13.5437H10.8701C10.8701 13.5437 10.8701 13.5496 10.8701 13.5555C9.99824 13.8854 9.17941 14.1564 8.4136 14.392C8.49607 14.5687 8.53731 14.7631 8.53142 14.9575C8.53142 15.0341 8.51964 15.1048 8.50785 15.1814C9.43861 14.8279 10.4342 14.4391 11.471 14.0091C13.2677 13.2551 15.1881 12.3773 17.1615 11.3877C19.241 10.3509 21.1908 9.28464 22.9463 8.24785C28.1067 5.17872 31.4704 2.39235 31.164 1.2613C31.1523 1.21418 31.1405 1.19062 31.1287 1.15527C30.6221 0.142045 26.7872 0.966764 21.6032 3.02267C21.7682 2.96376 21.9331 2.91663 22.098 2.85772C22.1098 2.84594 22.1098 2.84594 22.1216 2.84594L22.1157 2.85772ZM15.8773 6.64554C15.7124 6.64554 15.571 6.51005 15.571 6.3451V6.33921C15.5828 6.16838 15.73 6.04467 15.895 6.05056C16.0481 6.06234 16.1718 6.18016 16.1836 6.33921C16.1836 6.50416 16.0481 6.64554 15.8773 6.64554ZM20.59 6.23907C20.5075 5.95631 20.2424 5.85616 19.9538 5.78547C20.2071 5.70889 20.4781 5.72067 20.7255 5.81493C21.6327 6.16249 21.3146 7.27586 21.0907 7.62342C20.5016 8.43046 19.1408 8.43636 18.97 7.19339C19.6651 8.08291 20.8786 7.21695 20.59 6.23907ZM14.004 10.7573C14.0099 10.5924 14.1454 10.4569 14.3103 10.451C14.4753 10.451 14.6167 10.5865 14.6167 10.7515V10.7573C14.6167 10.9223 14.4812 11.0578 14.3103 11.0637C14.1454 11.0637 14.0099 10.9282 14.004 10.7573ZM11.0232 6.33921C11.0232 6.42169 10.9526 6.49238 10.8701 6.49238C10.7876 6.49238 10.7169 6.42169 10.7169 6.33921C10.7169 6.25674 10.7876 6.18605 10.8701 6.18605C10.9526 6.18605 11.0174 6.24496 11.0232 6.32743C11.0232 6.33332 11.0232 6.33332 11.0232 6.33921ZM10.2457 8.27141C10.7699 7.72945 11.7949 7.86494 11.7949 8.81926C11.3708 8.07112 10.3635 8.59541 10.4813 9.36122C10.5166 9.58507 10.7051 9.68522 10.9054 9.76769C10.7051 9.79714 10.5049 9.7618 10.3281 9.66754C9.68602 9.3082 10.0395 8.50704 10.2457 8.27141ZM12.8082 4.14193C12.4842 4.14193 12.2191 3.87684 12.2191 3.55285C12.2191 3.22885 12.4842 2.96376 12.8082 2.96376C13.1322 2.96376 13.3973 3.22885 13.3973 3.55285C13.3973 3.87684 13.144 4.13604 12.82 4.14193C12.8141 4.14193 12.8082 4.14193 12.8082 4.14193ZM16.543 3.3879C16.4487 3.20528 16.4134 2.9991 16.4428 2.79881C16.5724 2.06246 17.4502 2.13315 17.7506 2.24508C18.4516 2.56907 18.6637 3.58819 17.7506 3.91219C18.322 3.25241 17.4796 2.46893 16.7904 2.84005C16.5901 2.94609 16.5548 3.15816 16.5371 3.38201H16.543V3.3879Z" fill="#FE8F01"/>
</g>
</svg>
